# xmcd CD database file
#
# Track frame offsets:
#	150
#	3510
#	13732
#	26150
#	39064
#	52510
#	68030
#	82170
#	98302
#	111835
#	128807
#	135972
#	139235
#	150482
#	165477
#	177137
#	189492
#	204057
#	217965
#	233287
#	246300
#	259142
#
# Disc length: 3625 seconds
#
# Revision: 0
# Processed by: cddbd v1.4PL0 Copyright (c) Steve Scherf et al.
# Submitted via: CDex 1.50
#
DISCID=090e2716
DTITLE=Benny Goodman - The Complete 1937 Madhattan Room Broadcasts Vol. 5
DYEAR=1995
DGENRE=Jazz
TTITLE0=Let's Dance (theme)
TTITLE1=That Naughty Waltz
TTITLE2=Once in a While
TTITLE3=More Than You Know
TTITLE4=Pop-Corn Man
TTITLE5=You Showed Me The Way
TTITLE6=Blue Skies
TTITLE7=Vieni, Vieni
TTITLE8=If It's The Last Thing I Do
TTITLE9=Life Goes To A Party
TTITLE10=Good-bye (theme)
TTITLE11=Let's Dance (theme) #2
TTITLE12=Laughing At Life
TTITLE13=You Took The Words Right Out Of My Heart
TTITLE14=Sweet Stranger
TTITLE15=Who!
TTITLE16=Down South Camp Meetin'
TTITLE17=In The Still of the Night
TTITLE18=Limehouse Blues
TTITLE19=Mama, That Moon Is Here Again
TTITLE20=Swingtime in the Rockies
TTITLE21=Farewell, My Love
EXTD=YEAR: 1995
EXTT0=
EXTT1=
EXTT2=
EXTT3=
EXTT4=
EXTT5=
EXTT6=
EXTT7=
EXTT8=
EXTT9=
EXTT10=
EXTT11=
EXTT12=
EXTT13=
EXTT14=
EXTT15=
EXTT16=
EXTT17=
EXTT18=
EXTT19=
EXTT20=
EXTT21=
PLAYORDER=
